<?xml version="1.0" standalone="no"?>
<svg viewBox="0 0 200 200" xmlns="http://www.w3.org/2000/svg">
  <path fill="#A7F0BA" d="M7.7,-24.5C12,-10.8,19,-12.9,30,-11.5C41.1,-10,56.1,-5,54.4,-1C52.7,3,34.2,6,27.5,15C20.8,24,26,38.9,23.4,43.8C20.7,48.6,10.4,43.3,-0.2,43.6C-10.7,43.8,-21.4,49.7,-35.8,51.6C-50.2,53.6,-68.3,51.7,-76.5,42.5C-84.8,33.2,-83.2,16.6,-80.2,1.8C-77.2,-13.1,-72.7,-26.2,-59.6,-27.2C-46.6,-28.2,-25,-17.1,-13.7,-26.7C-2.3,-36.2,-1.1,-66.5,0.3,-66.9C1.7,-67.4,3.4,-38.1,7.7,-24.5Z" transform="translate(100 100)" />
</svg>
